<svg width="200" height="200" viewBox="0 0 200 200" fill="none" xmlns="http://www.w3.org/2000/svg">
<rect width="200" height="200" rx="20" fill="#111111"/>
<rect width="200" height="200" rx="20" fill="url(#paint0_radial_21_12)" fill-opacity="0.5"/>
<path d="M127.285 77.8594V86.3619H112.918V125.877H102.82V86.3619H88.3881V77.8594H127.285ZM129.63 77.8594H140.348L150.772 114.312L161.294 77.8594H171.719L155.333 125.877H145.853L129.63 77.8594Z" fill="white"/>
<path d="M57.347 126.017L53.2366 122.332C48.4649 118.032 44.52 114.324 41.4018 111.205C38.2836 108.087 35.8033 105.288 33.9607 102.808C32.1182 100.327 30.8307 98.0477 30.0984 95.9689C29.3661 93.8901 29 91.7641 29 89.5908C29 85.1498 30.4882 81.4411 33.4646 78.4646C36.4411 75.4882 40.1498 74 44.5908 74C47.0476 74 49.3862 74.5197 51.6067 75.5591C53.8272 76.5985 55.7406 78.0631 57.347 79.9529C58.9533 78.0631 60.8667 76.5985 63.0872 75.5591C65.3077 74.5197 67.6463 74 70.1031 74C74.5441 74 78.2528 75.4882 81.2293 78.4646C84.2057 81.4411 85.6939 85.1498 85.6939 89.5908C85.6939 91.7641 85.3278 93.8901 84.5955 95.9689C83.8632 98.0477 82.5757 100.327 80.7332 102.808C78.8906 105.288 76.4103 108.087 73.2921 111.205C70.174 114.324 66.229 118.032 61.4573 122.332L57.347 126.017ZM57.347 118.363C61.8825 114.3 65.6148 110.816 68.544 107.91C71.4732 105.004 73.7882 102.477 75.489 100.327C77.1898 98.1776 78.3709 96.2642 79.0324 94.587C79.6938 92.9098 80.0245 91.2444 80.0245 89.5908C80.0245 86.7561 79.0796 84.3939 77.1898 82.5041C75.3 80.6143 72.9378 79.6694 70.1031 79.6694C67.8826 79.6694 65.8274 80.2954 63.9376 81.5474C62.0478 82.7994 60.7486 84.3939 60.0399 86.3309H54.654C53.9453 84.3939 52.6461 82.7994 50.7563 81.5474C48.8665 80.2954 46.8113 79.6694 44.5908 79.6694C41.7561 79.6694 39.3939 80.6143 37.5041 82.5041C35.6143 84.3939 34.6694 86.7561 34.6694 89.5908C34.6694 91.2444 35.0001 92.9098 35.6615 94.587C36.323 96.2642 37.5041 98.1776 39.2049 100.327C40.9057 102.477 43.2207 105.004 46.1499 107.91C49.0791 110.816 52.8114 114.3 57.347 118.363Z" fill="white"/>
<path d="M32.9484 83.5367L43.214 77.7661H44.1252L49.2276 79.1632L57.8532 83.5367L60.04 82.2611L67.6329 77.7661H77.2304L79.9031 83.5367L82.6365 89.8541L79.9031 97.9937L62.7734 115.67L56.8206 119.497L53.1759 118.404L32.9484 94.1669V83.5367Z" fill="white"/>
<defs>
<radialGradient id="paint0_radial_21_12" cx="0" cy="0" r="1" gradientUnits="userSpaceOnUse" gradientTransform="translate(100 100) rotate(94.0593) scale(77.6949)">
<stop offset="0.0989583" stop-color="#C0C0C0"/>
<stop offset="1" stop-opacity="0"/>
</radialGradient>
</defs>
</svg>
